<?xml version="1.0" standalone="no"?>
<!DOCTYPE svg PUBLIC "-//W3C//DTD SVG 20010904//EN"
 "http://www.w3.org/TR/2001/REC-SVG-20010904/DTD/svg10.dtd">
<svg version="1.0" xmlns="http://www.w3.org/2000/svg"
 width="36.000000pt" height="86.000000pt" viewBox="0 0 36.000000 86.000000"
 preserveAspectRatio="xMidYMid meet">

<g transform="translate(0.000000,86.000000) scale(0.100000,-0.100000)"
fill="#DB202C" stroke="none">
<path d="M40 440 l0 -310 23 4 c12 3 55 10 95 16 109 16 147 40 171 109 24 73
5 193 -34 207 -21 8 -19 23 6 50 28 30 36 117 16 167 -22 52 -62 67 -182 67
l-95 0 0 -310z m174 214 c19 -19 22 -107 4 -121 -7 -6 -28 -13 -45 -16 l-33
-6 0 79 0 80 29 0 c16 0 37 -7 45 -16z m10 -240 c20 -19 22 -136 4 -152 -7 -6
-30 -13 -50 -17 l-38 -7 0 96 0 96 34 0 c19 0 42 -7 50 -16z"/>
</g>
</svg>
