<svg version="1.1" id="Layer_1" xmlns="http://www.w3.org/2000/svg" xmlns:xlink="http://www.w3.org/1999/xlink" x="0px" y="0px"
	 width="100%" viewBox="0 0 91 184" enable-background="new 0 0 91 184" xml:space="preserve">
<path fill="#FFFEFE" opacity="0.000000" stroke="none" 
	d="
M1.000000,79.000000 
	C1.000000,52.666668 1.000000,26.833340 1.000000,1.000007 
	C31.333326,1.000005 61.666653,1.000005 91.999985,1.000002 
	C91.999985,62.333317 91.999985,123.666634 91.999992,184.999969 
	C61.666683,184.999969 31.333368,184.999969 1.000026,184.999985 
	C1.000000,149.833328 1.000000,114.666664 1.000000,79.000000 
M13.555677,171.982056 
	C26.841068,169.930359 40.128582,167.892273 53.411308,165.823456 
	C69.718987,163.283463 82.844795,152.037476 85.669518,136.617462 
	C87.208305,128.217255 86.732712,119.433235 86.993523,110.817108 
	C87.402512,97.305565 83.925438,85.808067 69.481178,79.924049 
	C77.379692,75.644165 82.084137,69.482315 83.444733,61.474709 
	C84.575417,54.820221 85.159882,47.920040 84.792458,41.193913 
	C83.865730,24.229042 76.575005,14.895294 59.687504,13.057973 
	C43.947552,11.345503 27.874779,12.692108 11.676548,12.692108 
	C11.613469,13.297859 11.425657,14.261516 11.425297,15.225241 
	C11.406229,66.203377 11.393661,117.181534 11.451798,168.159607 
	C11.453258,169.438919 12.252990,170.717300 13.555677,171.982056 
z"/>
<path fill="#DB232F" opacity="1.000000" stroke="none" 
	d="
M13.118049,171.989090 
	C12.252990,170.717300 11.453258,169.438919 11.451798,168.159607 
	C11.393661,117.181534 11.406229,66.203377 11.425297,15.225241 
	C11.425657,14.261516 11.613469,13.297859 11.676548,12.692108 
	C27.874779,12.692108 43.947552,11.345503 59.687504,13.057973 
	C76.575005,14.895294 83.865730,24.229042 84.792458,41.193913 
	C85.159882,47.920040 84.575417,54.820221 83.444733,61.474709 
	C82.084137,69.482315 77.379692,75.644165 69.481178,79.924049 
	C83.925438,85.808067 87.402512,97.305565 86.993523,110.817108 
	C86.732712,119.433235 87.208305,128.217255 85.669518,136.617462 
	C82.844795,152.037476 69.718987,163.283463 53.411308,165.823456 
	C40.128582,167.892273 26.841068,169.930359 13.118049,171.989090 
M36.382381,121.499687 
	C36.382381,128.788956 36.382381,136.078232 36.382381,143.917419 
	C42.073696,143.049713 47.179798,142.529922 52.162994,141.445404 
	C58.257656,140.118988 61.757961,136.013992 61.944363,129.885910 
	C62.187386,121.896355 62.209949,113.886635 61.937462,105.898895 
	C61.698490,98.893700 58.075687,95.204605 51.144550,94.726624 
	C46.411182,94.400192 41.637100,94.664146 36.382607,94.664146 
	C36.382607,103.898941 36.382607,112.199364 36.382381,121.499687 
M60.007603,51.515282 
	C60.005680,49.517570 60.210129,47.493671 59.960640,45.527374 
	C59.365669,40.838314 58.552872,35.588818 53.264507,34.363266 
	C47.944679,33.130421 42.265747,33.447166 36.628098,33.077271 
	C36.628098,47.021671 36.628098,59.784874 36.628098,72.952499 
	C40.696083,72.553596 44.522305,72.450462 48.238361,71.757004 
	C55.821846,70.341805 59.538342,65.828857 59.988998,57.962585 
	C60.093575,56.137264 60.006413,54.300961 60.007603,51.515282 
z"/>
<path fill="#FEF9F9" opacity="1.000000" stroke="none" 
	d="
M36.382492,120.999741 
	C36.382607,112.199364 36.382607,103.898941 36.382607,94.664146 
	C41.637100,94.664146 46.411182,94.400192 51.144550,94.726624 
	C58.075687,95.204605 61.698490,98.893700 61.937462,105.898895 
	C62.209949,113.886635 62.187386,121.896355 61.944363,129.885910 
	C61.757961,136.013992 58.257656,140.118988 52.162994,141.445404 
	C47.179798,142.529922 42.073696,143.049713 36.382381,143.917419 
	C36.382381,136.078232 36.382381,128.788956 36.382492,120.999741 
z"/>
<path fill="#FEF8F8" opacity="1.000000" stroke="none" 
	d="
M60.007538,51.992493 
	C60.006413,54.300961 60.093575,56.137264 59.988998,57.962585 
	C59.538342,65.828857 55.821846,70.341805 48.238361,71.757004 
	C44.522305,72.450462 40.696083,72.553596 36.628098,72.952499 
	C36.628098,59.784874 36.628098,47.021671 36.628098,33.077271 
	C42.265747,33.447166 47.944679,33.130421 53.264507,34.363266 
	C58.552872,35.588818 59.365669,40.838314 59.960640,45.527374 
	C60.210129,47.493671 60.005680,49.517570 60.007538,51.992493 
z"/>
</svg>